<?xml version="1.0" encoding="utf-8"?>
<!-- Generator: Adobe Illustrator 27.8.0, SVG Export Plug-In . SVG Version: 6.00 Build 0)  -->
<svg version="1.1" id="Capa_1" xmlns="http://www.w3.org/2000/svg" xmlns:xlink="http://www.w3.org/1999/xlink" x="0px" y="0px"
	 viewBox="0 0 138 48" style="enable-background:new 0 0 138 48;" xml:space="preserve">
<style type="text/css">
	.st0{fill:url(#SVGID_1_);}
	.st1{fill:#575757;}
	.st2{fill:url(#SVGID_00000161600007827160908190000010801957269939412625_);}
	.st3{fill:url(#SVGID_00000119113766623039190040000018149822780516748697_);}
	.st4{fill:#999999;}
</style>
<linearGradient id="SVGID_1_" gradientUnits="userSpaceOnUse" x1="69.5" y1="180.65" x2="87.9" y2="180.65" gradientTransform="matrix(-1 0 0 1 157.4 -150)">
	<stop  offset="9.604194e-02" style="stop-color:#0D74F3"/>
	<stop  offset="0.3552" style="stop-color:#0D86F0"/>
	<stop  offset="0.6782" style="stop-color:#0D98E9"/>
	<stop  offset="1" style="stop-color:#0DA9E2"/>
</linearGradient>
<path class="st0" d="M87.9,33.7H69.5v-6.1h18.4V33.7z"/>
<path class="st1" d="M90.4,7.2H54.2v26.6h8.7V23.3h27.6c2.6,0,4.7-2.1,4.7-4.7v-6.8C95.1,9.2,93,7.1,90.4,7.2z M87.3,15.9
	c0,1.3-1,2.3-2.3,2.3H62.8v-5.9H85c1.3,0,2.3,1.1,2.3,2.3V15.9C87.3,15.8,87.3,15.8,87.3,15.9z"/>
<path class="st1" d="M138,24.7h-8.5V28H108c-1.3,0-2.3-1-2.3-2.3V15.1c0-1.3,1-2.3,2.3-2.3h21.5V16h8.5v-3.3c-0.2-3.1-2.8-5.6-6-5.6
	h-28.9c-3.3,0-6,2.7-6,6v14.5c0,3.3,2.7,6,6,6h29c3.1,0,5.8-2.5,6-5.7L138,24.7L138,24.7z"/>
<linearGradient id="SVGID_00000176037046281757252090000007076491144626468999_" gradientUnits="userSpaceOnUse" x1="-120.0424" y1="-122.4333" x2="-76.0848" y2="-122.4333" gradientTransform="matrix(-1 0 0 1 -76.0424 150.0662)">
	<stop  offset="0" style="stop-color:#0D74F3"/>
	<stop  offset="0.3" style="stop-color:#0D86F0"/>
	<stop  offset="1" style="stop-color:#0DA9E2"/>
</linearGradient>
<path style="fill:url(#SVGID_00000176037046281757252090000007076491144626468999_);" d="M13.7,17.1c3.6,0.4,8-1.4,11.1-2.7L38,8.9
	c2.6-1,6-3.2,6,0.2V34c0,1.9-0.9,2.4-1.4,2.7l-17.5,9.1c-2.5,1.3-6.5,2.8-10.7,2.1c-6-1-14.7-5.2-14.4-11.7l0-24.5
	C0,11.7,6,16.4,13.7,17.1z"/>
<linearGradient id="SVGID_00000085246469743564742580000007660051919077953930_" gradientUnits="userSpaceOnUse" x1="-100.58" y1="-143.8999" x2="-82.1823" y2="-143.8999" gradientTransform="matrix(-1 0 0 1 -76.0424 150.0662)">
	<stop  offset="0" style="stop-color:#0D74F3"/>
	<stop  offset="0.3" style="stop-color:#0D86F0"/>
	<stop  offset="1" style="stop-color:#0DA9E2"/>
</linearGradient>
<path style="fill:url(#SVGID_00000085246469743564742580000007660051919077953930_);" d="M24.5,8.9V2.1c0-3.4-2.6-1.8-5.6-0.5
	c0,0-6.7,3-10.7,4.7c-2.4,1-2.5,2.4-1.5,3c3.3,2.3,7,3.5,9.6,2.9C18,11.8,24.5,8.9,24.5,8.9z"/>
<polygon class="st4" points="54.8,45.9 53.4,45.9 53.4,37.8 55.9,37.8 59.2,44.6 59.2,37.8 60.5,37.8 60.5,45.9 58.1,45.9 
	54.8,39.1 "/>
<path class="st4" d="M66.5,37.9c0.4,0.1,0.8,0.2,1.1,0.4c0.3,0.2,0.5,0.5,0.7,0.9c0.1,0.4,0.2,0.9,0.2,1.6V43c0,0.7-0.1,1.2-0.2,1.6
	s-0.3,0.7-0.6,0.9c-0.3,0.2-0.7,0.4-1.1,0.5c-0.5,0.1-1,0.1-1.6,0.1c-0.7,0-1.2,0-1.7-0.1s-0.8-0.2-1.1-0.4s-0.5-0.5-0.6-0.9
	s-0.2-0.9-0.2-1.6v-2.2c0-0.6,0.1-1.1,0.2-1.5c0.1-0.4,0.3-0.7,0.6-0.9s0.6-0.3,1.1-0.4c0.5-0.1,1-0.1,1.7-0.1
	C65.6,37.8,66.1,37.8,66.5,37.9z M63.9,39.2c-0.3,0.1-0.4,0.1-0.6,0.2c-0.1,0.1-0.2,0.3-0.3,0.5c0,0.2-0.1,0.5-0.1,0.8v2.2
	c0,0.4,0,0.7,0.1,0.9s0.2,0.4,0.3,0.5s0.3,0.2,0.6,0.2c0.3,0,0.6,0.1,1,0.1s0.7,0,0.9-0.1s0.5-0.1,0.6-0.2c0.2-0.1,0.3-0.3,0.3-0.5
	c0.1-0.2,0.1-0.5,0.1-0.9v-2.2c0-0.4,0-0.7-0.1-0.9s-0.2-0.4-0.3-0.5c-0.2-0.1-0.4-0.2-0.6-0.2c-0.3,0-0.6,0-0.9,0
	C64.5,39.1,64.2,39.1,63.9,39.2z M71,45.9h-1.4v-8.2H72l2.2,6.1l0,0l2.1-6.1h2.5v8.2h-1.4V39l-2.5,6.9h-1.3L71,39.1V45.9L71,45.9z
	 M79.8,37.8h3.4c0.5,0,0.9,0,1.3,0.1c0.3,0.1,0.6,0.2,0.8,0.4c0.2,0.2,0.4,0.5,0.4,0.8c0.1,0.4,0.1,0.8,0.1,1.4c0,0.6-0.1,1-0.1,1.4
	c-0.1,0.4-0.2,0.6-0.5,0.8c-0.2,0.2-0.5,0.3-0.8,0.4c-0.3,0.1-0.8,0.1-1.3,0.1h-1.9V46h-1.5L79.8,37.8L79.8,37.8z M83.2,42
	c0.3,0,0.5,0,0.6-0.1s0.3-0.1,0.4-0.2s0.1-0.2,0.2-0.4s0.1-0.4,0.1-0.7s0-0.5,0-0.7s-0.1-0.3-0.2-0.5c-0.1-0.1-0.2-0.2-0.4-0.2
	c-0.2,0-0.4-0.1-0.7-0.1h-1.9V42H83.2L83.2,42z M92.1,37.9c0.4,0.1,0.8,0.2,1.1,0.4c0.3,0.2,0.5,0.5,0.7,0.9s0.2,0.9,0.2,1.6V43
	c0,0.7-0.1,1.2-0.2,1.6s-0.4,0.7-0.6,0.9c-0.3,0.2-0.7,0.4-1.1,0.5c-0.5,0.1-1,0.1-1.6,0.1c-0.7,0-1.2,0-1.7-0.1s-0.8-0.2-1.1-0.4
	s-0.5-0.5-0.6-0.9S87,43.5,87,42.9v-2.2c0-0.6,0.1-1.1,0.2-1.5s0.3-0.7,0.6-0.9s0.6-0.3,1.1-0.4c0.5-0.1,1-0.1,1.7-0.1
	C91.1,37.8,91.6,37.8,92.1,37.9z M89.5,39.2c-0.3,0.1-0.4,0.1-0.6,0.2c-0.1,0.1-0.2,0.3-0.3,0.5s-0.1,0.5-0.1,0.8v2.2
	c0,0.4,0,0.7,0.1,0.9s0.1,0.4,0.3,0.5s0.3,0.2,0.6,0.2s0.6,0.1,1,0.1s0.7,0,0.9-0.1c0.3,0,0.5-0.1,0.6-0.2c0.2-0.1,0.3-0.3,0.3-0.5
	c0.1-0.2,0.1-0.5,0.1-0.9v-2.2c0-0.4,0-0.7-0.1-0.9s-0.2-0.4-0.3-0.5c-0.2-0.1-0.4-0.2-0.6-0.2c-0.3,0-0.6,0-0.9,0
	C90.1,39.1,89.7,39.1,89.5,39.2z M96.5,45.9h-1.4v-8.2h2.5l3.3,6.8v-6.8h1.4v8.2h-2.5l-3.3-6.8V45.9L96.5,45.9z M105.7,41.1h3.5v1.3
	h-3.5v2.2h3.7v1.3h-5.1v-8.2h5.1V39h-3.7V41.1C105.8,41.2,105.7,41.1,105.7,41.1z M111.9,45.9h-1.4v-8.2h2.4l3.3,6.8v-6.8h1.4v8.2
	h-2.5l-3.3-6.8L111.9,45.9C111.8,45.9,111.9,45.9,111.9,45.9z M122.5,45.9H121v-6.8h-2.3v-1.3h6.1v1.3h-2.3
	C122.5,39.1,122.5,45.9,122.5,45.9z M127.2,41.1h3.5v1.3h-3.5v2.2h3.7v1.3h-5.1v-8.2h5.1V39h-3.7C127.2,39.1,127.2,41.1,127.2,41.1z
	 M133.4,43.3v0.4c0,0.2,0,0.4,0.1,0.6c0,0.1,0.1,0.2,0.3,0.3c0.1,0.1,0.3,0.1,0.5,0.1s0.5,0,0.8,0s0.6,0,0.8-0.1
	c0.2,0,0.4-0.1,0.5-0.2c0.1-0.1,0.2-0.2,0.2-0.4s0.1-0.3,0.1-0.6s0-0.5-0.1-0.7c-0.1-0.1-0.2-0.2-0.3-0.3s-0.3-0.1-0.5-0.1h-0.7
	l-1.1-0.1c-0.4,0-0.7-0.1-0.9-0.3c-0.3-0.1-0.5-0.4-0.6-0.7c-0.2-0.3-0.2-0.8-0.2-1.3s0.1-1,0.2-1.3c0.2-0.3,0.4-0.5,0.6-0.7
	c0.3-0.2,0.6-0.2,1-0.3c0.4,0,0.8,0,1.2,0s0.8,0,1.1,0s0.6,0.1,0.9,0.2c0.3,0.1,0.5,0.4,0.6,0.7s0.2,0.7,0.2,1.2v0.2h-1.5v-0.2
	c0-0.2,0-0.4-0.1-0.5c0-0.1-0.1-0.2-0.2-0.3c-0.1-0.1-0.2-0.1-0.4-0.1s-0.4,0-0.6,0c-0.4,0-0.6,0-0.9,0c-0.2,0-0.4,0.1-0.5,0.2
	c-0.1,0.1-0.2,0.2-0.2,0.3s0,0.3,0,0.5s0,0.4,0,0.6c0,0.1,0.1,0.2,0.2,0.3c0.1,0.1,0.3,0.1,0.5,0.2c0.2,0,0.5,0.1,0.9,0.1
	c0.6,0,1.1,0.1,1.4,0.1c0.4,0.1,0.7,0.2,0.9,0.3c0.2,0.2,0.4,0.4,0.5,0.7s0.1,0.7,0.1,1.2c0,0.6-0.1,1-0.2,1.3
	c-0.1,0.3-0.3,0.6-0.6,0.7c-0.2,0.2-0.5,0.3-0.9,0.3s-0.8,0.1-1.3,0.1c-0.4,0-0.8,0-1.2,0s-0.7-0.1-1-0.2c-0.3-0.1-0.5-0.4-0.7-0.7
	s-0.3-0.7-0.3-1.3v-0.4L133.4,43.3L133.4,43.3L133.4,43.3z"/>
</svg>
